<svg enable-background="new 0 0 90 90" viewBox="0 0 90 90" xmlns="http://www.w3.org/2000/svg"><path d="m68.5 71.3v-22.8c0-3.2-.5-5.9-1.9-8.8-1.1-2.7-2.7-5.1-4.8-7.2-1.1-1.1-2.4-2.4-4-3.2l10.7-11c1.3 1.1 2.7 2.1 4 3.5 3.5 3.5 5.9 7.5 8 11.8 1.9 4.6 2.9 9.4 2.9 14.5v38h-37.4c-5.1 0-9.9-1.1-14.5-2.9s-8.6-4.6-12.1-8c-1.1-1.1-2.1-2.4-3.2-3.5l10.4-10.7c.8 1.3 1.9 2.4 2.9 3.7 2.1 2.1 4.6 3.7 7.2 4.8 2.7 1.1 5.9 1.9 8.8 1.9z" fill="#fe7501"/><path d="m52.7 12.1c4.6 1.1 9.1 2.7 13.1 5.4l-10.4 10.4c-2.9-1.6-6.4-2.4-9.9-2.4-12.3 0-22.8 10.2-22.8 22.8 0 3.7 1.1 7.2 2.4 10.2l-10.4 10.4c-2.4-3.7-4.6-8-5.6-12.9l-5.9-1.1v-12.3l5.4-1.1c1.1-4.8 2.7-9.6 5.4-13.7l-3.2-4.6 8.8-8.8 4.6 2.9c4-2.7 8.8-4.8 13.7-5.9l1.1-5.4h12.3z" fill="#fe7501"/><path d="m45.8 32.4c3.5 0 6.3.8 8.3 2.3s3 3.6 3 6.3c0 .9-.1 1.7-.4 2.4s-.6 1.4-1.1 1.9c-.4.5-.9 1-1.5 1.4-.5.4-1.1.7-1.6.9.7.2 1.3.5 2 .9s1.2.9 1.7 1.5.9 1.3 1.2 2.1.5 1.8.5 2.8c0 1.5-.3 2.8-.9 3.9s-1.4 2.1-2.5 2.9c-1 .8-2.3 1.4-3.8 1.8s-3.1.6-4.8.6c-1.6 0-3-.1-4.2-.4-1.2-.2-2.3-.6-3.2-1s-1.5-.9-2-1.5-.7-1.2-.7-1.8c0-.7.2-1.3.5-1.8.4-.5.8-.9 1.3-1.1.8.6 1.7 1.1 2.9 1.6s2.7.8 4.6.8c2 0 3.5-.4 4.6-1.1 1.1-.8 1.6-1.9 1.6-3.3 0-1.3-.5-2.4-1.4-3.1-1-.8-2.4-1.1-4.4-1.1h-4.4c-.2-.3-.3-.6-.5-1.1-.1-.4-.2-.9-.2-1.4 0-.6.1-1.1.2-1.5s.3-.8.5-1.1h4.3c1.8 0 3.1-.3 3.9-1s1.2-1.6 1.2-2.8-.5-2.2-1.4-2.9c-1-.7-2.4-1-4.2-1-1.5 0-2.8.2-3.9.6s-2 .9-2.8 1.4c-.4-.3-.8-.7-1.1-1.1-.3-.5-.5-1-.5-1.6s.2-1.2.7-1.8 1.1-1 1.9-1.4 1.8-.7 2.9-.9 2.3-.3 3.7-.3z" fill="#fff"/></svg>