<svg enable-background="new 0 0 90 90" viewBox="0 0 90 90" xmlns="http://www.w3.org/2000/svg"><path d="m68.5 71.3v-22.8c0-3.2-.5-5.9-1.9-8.8-1.1-2.7-2.7-5.1-4.8-7.2-1.1-1.1-2.4-2.4-4-3.2l10.7-11c1.3 1.1 2.7 2.1 4 3.5 3.5 3.5 5.9 7.5 8 11.8 1.9 4.6 2.9 9.4 2.9 14.5v38h-37.4c-5.1 0-9.9-1.1-14.5-2.9s-8.6-4.6-12.1-8c-1.1-1.1-2.1-2.4-3.2-3.5l10.4-10.7c.8 1.3 1.9 2.4 2.9 3.7 2.1 2.1 4.6 3.7 7.2 4.8 2.7 1.1 5.9 1.9 8.8 1.9z" fill="#fe7501"/><path d="m52.7 12.1c4.6 1.1 9.1 2.7 13.1 5.4l-10.4 10.4c-2.9-1.6-6.4-2.4-9.9-2.4-12.3 0-22.8 10.2-22.8 22.8 0 3.7 1.1 7.2 2.4 10.2l-10.4 10.4c-2.4-3.7-4.6-8-5.6-12.9l-5.9-1.1v-12.3l5.4-1.1c1.1-4.8 2.7-9.6 5.4-13.7l-3.2-4.6 8.8-8.8 4.6 2.9c4-2.7 8.8-4.8 13.7-5.9l1.1-5.4h12.3z" fill="#fe7501"/><path d="m37.5 37.4c0-.7.2-1.3.6-1.8.4-.6 1-1 1.8-1.4s1.7-.7 2.8-.9 2.3-.3 3.5-.3c1.8 0 3.4.2 4.8.7 1.4.4 2.6 1.1 3.5 1.9 1 .8 1.7 1.8 2.2 2.8.5 1.1.7 2.3.7 3.7 0 1.8-.5 3.5-1.5 5.3-1 1.7-2.6 3.5-4.9 5.4l-7.3 6.2h13.4c.2.3.3.6.5 1 .1.4.2.9.2 1.4 0 .9-.2 1.5-.6 1.9s-1 .6-1.7.6h-17.5c-.5-.4-1-.8-1.3-1.4s-.5-1.2-.5-2 .2-1.6.5-2.1c.3-.6.8-1.1 1.2-1.6l8-7.3c1.9-1.7 3.2-3.1 3.8-4.2.7-1.1 1.1-2.2 1.1-3.3 0-1.2-.5-2.2-1.4-3s-2.2-1.2-4-1.2c-1.4 0-2.6.2-3.8.7-1.1.4-2 .9-2.8 1.5-.5-.3-.9-.6-1.2-1.1 0-.3-.1-.8-.1-1.5z" fill="#fff"/></svg>